<svg width="20" height="27" viewBox="0 0 20 27" fill="none" xmlns="http://www.w3.org/2000/svg">
<path d="M15.5379 7.05957H7.93896V8.02152H15.5379V7.05957Z" fill="white" fill-opacity="0.4"/>
<path d="M15.5379 9.46533H7.93896V10.4273H15.5379V9.46533Z" fill="white" fill-opacity="0.4"/>
<path d="M15.5379 14.2769H7.93896V15.2388H15.5379V14.2769Z" fill="white" fill-opacity="0.4"/>
<path d="M15.47 19.0889H7.87109V20.0508H15.47V19.0889Z" fill="white" fill-opacity="0.4"/>
<path d="M15.47 16.6831H7.87109V17.6451H15.47V16.6831Z" fill="white" fill-opacity="0.4"/>
<path d="M15.47 11.8711H7.87109V12.833H15.47V11.8711Z" fill="white" fill-opacity="0.4"/>
<path d="M15.5379 21.4946H7.93896V22.4566H15.5379V21.4946Z" fill="white" fill-opacity="0.4"/>
<path d="M14.8785 1.74658V0H5.1214V1.74658H-1.1542e-07V27H20V1.74658H14.8785ZM14.8785 5.71159V4.87246H16.928V23.8742H3.07197V4.87246H5.12147V5.71159H14.8785ZM6.09953 0.961947H13.9004V4.74965H6.09953V0.961947ZM19.0219 26.0381H0.978126V2.70852H5.1214V3.91044H2.09378V24.8361H17.9061V3.91051H14.8785V2.70852H19.0218V26.0381H19.0219Z" fill="white" fill-opacity="0.4"/>
<path d="M12.3776 2.375H7.62207V3.33695H12.3776V2.375Z" fill="white" fill-opacity="0.4"/>
<path d="M3.63965 8.33619L5.23041 9.9007L7.32842 7.83739L6.63676 7.15723L5.23041 8.54025L4.33131 7.65603L3.63965 8.33619Z" fill="white" fill-opacity="0.4"/>
<path d="M5.23041 14.6648L4.33131 13.7805L3.63965 14.4607L5.23041 16.0252L7.32842 13.9619L6.63676 13.2817L5.23041 14.6648Z" fill="white" fill-opacity="0.4"/>
<path d="M6.45244 19.0649L5.4841 20.0172L4.51582 19.0649L3.82422 19.7451L4.7925 20.6974L3.82422 21.6497L4.51582 22.3299L5.4841 21.3776L6.45244 22.3299L7.14404 21.6497L6.17576 20.6974L7.14404 19.7451L6.45244 19.0649Z" fill="white" fill-opacity="0.4"/>
</svg>
