<svg width="24" height="24" viewBox="0 0 24 24" fill="none" xmlns="http://www.w3.org/2000/svg">
<path d="M23.3629 8.23607L15.7633 0.636169C15.353 0.225948 14.8059 0 14.2227 0C13.6396 0 13.0924 0.225854 12.6822 0.636075L0.636141 12.6827C0.225938 13.093 0 13.64 0 14.2233C0 14.8065 0.225938 15.3537 0.636141 15.7638L1.57327 16.701C1.57336 16.701 1.57341 16.7011 1.5735 16.7012C1.57359 16.7013 1.57369 16.7014 1.57378 16.7015L7.87191 22.9999H6.99985C6.72375 22.9999 6.49988 23.2238 6.49988 23.4999C6.49988 23.776 6.72375 23.9999 6.99985 23.9999H9.77433C9.77499 23.9999 9.7756 24 9.77625 24C9.77691 24 9.77752 23.9999 9.77817 23.9999L16.9994 24C17.2755 24 17.4994 23.7761 17.4994 23.5C17.4994 23.2239 17.2755 23 16.9994 23L11.6808 22.9999L23.363 11.3172C24.2123 10.4677 24.2123 9.08549 23.3629 8.23607ZM22.6559 10.6101L10.6097 22.6568C10.3888 22.8777 10.0935 22.9995 9.77808 22.9999H9.77428C9.45896 22.9994 9.16374 22.8777 8.94291 22.6568L2.63414 16.3477L14.2027 4.77856C14.3979 4.58332 14.3979 4.26671 14.2027 4.07146C14.0074 3.87622 13.6909 3.87622 13.4956 4.07151L1.92703 15.6406L1.34316 15.0567C1.12186 14.8354 0.999985 14.5395 0.999985 14.2233C0.999985 13.9072 1.12186 13.6111 1.3432 13.3898L13.3892 1.34322C13.6106 1.12191 13.9066 1.00003 14.2227 1.00003C14.5388 1.00003 14.8349 1.12191 15.0562 1.34326L17.761 4.04817L6.19238 15.6174C5.99714 15.8126 5.99714 16.1292 6.19238 16.3246C6.29002 16.4222 6.41799 16.471 6.54591 16.471C6.67383 16.471 6.8018 16.4221 6.89944 16.3245L18.4681 4.75531L22.6559 8.94312C23.1154 9.4027 23.1153 10.1505 22.6559 10.6101Z" fill="white" fill-opacity="0.4"/>
<path d="M12.3187 14.4408C12.1235 14.2456 11.807 14.2457 11.6116 14.4408L7.67719 18.3754C7.48195 18.5706 7.48195 18.8872 7.67719 19.0825C7.77483 19.1802 7.9028 19.229 8.03072 19.229C8.15864 19.229 8.28661 19.1801 8.38425 19.0825L12.3187 15.148C12.5139 14.9527 12.5139 14.6361 12.3187 14.4408Z" fill="white" fill-opacity="0.4"/>
<path d="M10.7049 18.1758L9.09125 19.7895C8.89602 19.9848 8.89602 20.3014 9.09125 20.4967C9.18889 20.5942 9.31686 20.6431 9.44478 20.6431C9.5728 20.6431 9.70067 20.5942 9.79831 20.4967L11.412 18.8829C11.6072 18.6877 11.6072 18.3711 11.412 18.1758C11.2168 17.9805 10.9003 17.9805 10.7049 18.1758Z" fill="white" fill-opacity="0.4"/>
<path d="M12.1901 16.6908L11.978 16.9029C11.7827 17.0982 11.7827 17.4147 11.978 17.6101C12.0756 17.7077 12.2036 17.7565 12.3315 17.7565C12.4594 17.7565 12.5874 17.7077 12.685 17.6101L12.8971 17.398C13.0924 17.2027 13.0924 16.8862 12.8971 16.6909C12.702 16.4956 12.3854 16.4956 12.1901 16.6908Z" fill="white" fill-opacity="0.4"/>
<path d="M19.0818 7.67769C18.988 7.58394 18.8608 7.53125 18.7282 7.53125C18.5956 7.53125 18.4685 7.58394 18.3747 7.67769L16.2534 9.79907C16.1596 9.89287 16.1069 10.02 16.1069 10.1526C16.1069 10.2852 16.1596 10.4124 16.2534 10.5062L17.6676 11.9203C17.7652 12.018 17.8932 12.0668 18.0211 12.0668C18.1491 12.0668 18.277 12.0179 18.3747 11.9203L20.4959 9.79902C20.6911 9.60378 20.6911 9.28717 20.4959 9.09193L19.0818 7.67769ZM18.0211 10.8597L17.314 10.1526L18.7282 8.73838L19.4352 9.44552L18.0211 10.8597Z" fill="white" fill-opacity="0.4"/>
<path d="M15.0161 3.75859C15.1441 3.75859 15.2721 3.70975 15.3697 3.61206L15.5818 3.39984C15.777 3.20455 15.7769 2.88795 15.5816 2.69275C15.3864 2.49755 15.0698 2.4976 14.8746 2.69289L14.6625 2.9051C14.4673 3.10039 14.4673 3.417 14.6626 3.6122C14.7603 3.70984 14.8881 3.75859 15.0161 3.75859Z" fill="white" fill-opacity="0.4"/>
<path d="M5.02553 16.7842L4.81342 16.9963C4.61818 17.1915 4.61818 17.5081 4.81342 17.7034C4.91106 17.801 5.03903 17.8498 5.16695 17.8498C5.29487 17.8498 5.42284 17.801 5.52048 17.7034L5.73259 17.4913C5.92782 17.296 5.92782 16.9794 5.73259 16.7842C5.53731 16.5889 5.22081 16.5889 5.02553 16.7842Z" fill="white" fill-opacity="0.4"/>
</svg>
