<svg width="20" height="24" viewBox="0 0 20 24" fill="none" xmlns="http://www.w3.org/2000/svg">
<path d="M17.2727 8.93911V6.44444C17.2727 2.89111 14.01 0 10 0C5.99 0 2.72727 2.89111 2.72727 6.44444V8.93911C1.18136 9.19956 0 10.5169 0 12.1022V20.7876C0 22.5587 1.47409 24 3.28591 24H16.7141C18.5259 24 20 22.5587 20 20.7871V12.1018C20 10.5169 18.8186 9.19956 17.2727 8.93911ZM3.63636 6.44444C3.63636 3.38089 6.49091 0.888889 10 0.888889C13.5091 0.888889 16.3636 3.38089 16.3636 6.44444V8.88889H3.63636V6.44444ZM19.0909 20.7871C19.0909 22.0684 18.0245 23.1111 16.7141 23.1111H3.28591C1.97545 23.1111 0.909091 22.0684 0.909091 20.7871V12.1018C0.909091 10.8204 1.97545 9.77778 3.28591 9.77778H16.7141C18.0245 9.77778 19.0909 10.8204 19.0909 12.1018V20.7871Z" fill="white" fill-opacity="0.4"/>
<path d="M9.99982 12.4443C8.9971 12.4443 8.18164 13.2417 8.18164 14.2221V16.8888C8.18164 17.8692 8.9971 18.6666 9.99982 18.6666C11.0025 18.6666 11.818 17.8692 11.818 16.8888V14.2221C11.818 13.2417 11.0025 12.4443 9.99982 12.4443ZM10.9089 16.8888C10.9089 17.379 10.5012 17.7777 9.99982 17.7777C9.49846 17.7777 9.09073 17.379 9.09073 16.8888V14.2221C9.09073 13.7319 9.49846 13.3332 9.99982 13.3332C10.5012 13.3332 10.9089 13.7319 10.9089 14.2221V16.8888Z" fill="white" fill-opacity="0.4"/>
</svg>
