<svg width="24" height="22" viewBox="0 0 24 22" fill="none" xmlns="http://www.w3.org/2000/svg">
<path d="M23.6698 15.3403L23.0824 15.2179C22.807 15.1607 22.5902 14.9658 22.4877 14.6833C22.3848 14.4004 22.4214 14.0981 22.5874 13.8535L22.9563 13.3097C23.0751 13.1345 23.058 12.8917 22.9156 12.7381L22.1187 11.8766C21.9808 11.7279 21.7648 11.7054 21.6025 11.8238L21.1079 12.1863C20.8752 12.3575 20.5941 12.3843 20.337 12.2633C20.08 12.1419 19.9079 11.9003 19.8652 11.6003L19.7704 10.9337C19.7399 10.7189 19.569 10.5605 19.3685 10.5605H18.2417C18.0469 10.5605 17.8789 10.7101 17.8423 10.9174L17.6966 11.738C17.645 12.0297 17.4697 12.262 17.2162 12.3755C16.962 12.4895 16.687 12.4587 16.4596 12.2924L15.8202 11.8238C15.6595 11.7063 15.4423 11.7283 15.3044 11.877L14.5075 12.7385C14.3651 12.8921 14.348 13.135 14.4668 13.3101L14.8358 13.8539C15.0017 14.099 15.0383 14.4013 14.9354 14.6842C14.8329 14.9667 14.6161 15.1616 14.3407 15.2188L13.7533 15.3411C13.5621 15.3803 13.4238 15.5616 13.4238 15.7723V16.9907C13.4238 17.2081 13.5703 17.3924 13.7688 17.4254L14.385 17.5279C14.6629 17.5741 14.8862 17.7603 14.9985 18.0383C15.1107 18.3164 15.0851 18.6205 14.9273 18.8721L14.5921 19.4076C14.4827 19.5823 14.5034 19.8164 14.6413 19.9655L15.4378 20.8271C15.5798 20.9811 15.8043 20.9991 15.9658 20.8711L16.469 20.472C16.6952 20.2929 16.9746 20.2537 17.2358 20.3637C17.4973 20.4746 17.6775 20.7096 17.7304 21.0075L17.8431 21.6428C17.8801 21.8501 18.0477 22.0001 18.2425 22.0001H19.3693C19.5699 22.0001 19.7407 21.8417 19.7712 21.627L19.8379 21.1579C19.8806 20.8557 20.0625 20.6053 20.3236 20.4887C20.5856 20.3717 20.8764 20.4095 21.1046 20.5903L21.4581 20.8711C21.62 20.9991 21.8438 20.9811 21.9865 20.8275L22.783 19.966C22.9209 19.8168 22.9417 19.5827 22.8322 19.4081L22.497 18.8726C22.3392 18.6209 22.3136 18.3173 22.4259 18.0388C22.5377 17.7607 22.7615 17.5746 23.0393 17.5284L23.6556 17.4259C23.8537 17.3924 24.0001 17.2081 24.0001 16.9907V15.7723C24.0001 15.5616 23.8618 15.3803 23.6698 15.3403ZM23.1865 16.6132L22.9152 16.6585C22.3644 16.75 21.9032 17.1346 21.6802 17.6863C21.4573 18.2385 21.511 18.8664 21.8234 19.3654L21.9703 19.6003L21.6579 19.9378L21.5855 19.8806C21.1266 19.5167 20.5384 19.4397 20.012 19.6756C19.4857 19.9114 19.1204 20.4157 19.0337 21.0242L19.0203 21.1201H18.5785L18.5293 20.8416C18.424 20.2498 18.0514 19.7649 17.5327 19.5449C17.0145 19.3249 16.4364 19.4067 15.9878 19.7627L15.7661 19.9383L15.4537 19.6003L15.6005 19.3654C15.9129 18.8664 15.9662 18.2385 15.7437 17.6863C15.5208 17.1341 15.0591 16.75 14.5087 16.6585L14.2374 16.6132V16.1358L14.4949 16.0821C15.042 15.9681 15.4899 15.5655 15.6937 15.005C15.897 14.444 15.8218 13.8187 15.4927 13.3325L15.3304 13.0932L15.6428 12.7553L16.0044 13.0201C16.4556 13.351 17.025 13.4139 17.5286 13.1882C18.0318 12.9625 18.3939 12.4825 18.4968 11.9039L18.5789 11.4401H19.0207L19.0626 11.7336C19.1472 12.3293 19.5027 12.8283 20.0133 13.0694C20.5238 13.3101 21.1042 13.2525 21.5655 12.9141L21.7819 12.7553L22.0943 13.0932L21.932 13.3325C21.6025 13.8183 21.5277 14.4435 21.7311 15.0045C21.9349 15.5651 22.3832 15.9677 22.9299 16.0817L23.1865 16.1358V16.6132Z" fill="white" fill-opacity="0.4"/>
<path d="M18.7121 14.0801C17.5906 14.0801 16.6782 15.067 16.6782 16.2801C16.6782 17.4932 17.5906 18.4801 18.7121 18.4801C19.8336 18.4801 20.746 17.4932 20.746 16.2801C20.746 15.067 19.8336 14.0801 18.7121 14.0801ZM18.7121 17.6001C18.0393 17.6001 17.4918 17.0078 17.4918 16.2801C17.4918 15.5523 18.0393 14.9601 18.7121 14.9601C19.3849 14.9601 19.9325 15.5523 19.9325 16.2801C19.9325 17.0078 19.3849 17.6001 18.7121 17.6001Z" fill="white" fill-opacity="0.4"/>
<path d="M10.3196 10.4953C10.7272 10.8887 11.2621 11.0854 11.7974 11.0854C12.3315 11.0854 12.8656 10.8891 13.272 10.4971L22.7797 1.41548V10.56C22.7797 10.8029 22.9615 11 23.1864 11C23.4114 11 23.5932 10.8029 23.5932 10.56V0.44C23.5932 0.43648 23.5912 0.4334 23.5912 0.42988C23.59 0.38104 23.5835 0.33176 23.5668 0.28424C23.5656 0.28116 23.5635 0.27896 23.5623 0.27588C23.5582 0.26444 23.5509 0.25564 23.546 0.24464C23.5294 0.20856 23.5094 0.17556 23.4846 0.14608C23.474 0.13376 23.4631 0.1232 23.4513 0.1122C23.426 0.0884401 23.3988 0.06864 23.3687 0.05192C23.3553 0.04444 23.3431 0.0365201 23.3288 0.0308001C23.2841 0.0127601 23.2369 0 23.1864 0H0.40678C0.356339 0 0.309153 0.01276 0.264 0.03124C0.249763 0.03696 0.237559 0.04488 0.224136 0.05236C0.194441 0.06864 0.16678 0.08844 0.141559 0.11264C0.129763 0.12364 0.11878 0.13376 0.108203 0.14652C0.0833898 0.17556 0.0634576 0.20856 0.0467797 0.24508C0.0418983 0.25564 0.0349831 0.26488 0.0305085 0.27588C0.0296949 0.27896 0.0272542 0.28116 0.0260339 0.28424C0.00935593 0.33176 0.00284746 0.38104 0.00162712 0.42988C0.0020339 0.4334 0 0.43648 0 0.44V17.6C0 17.6013 0.000813559 17.6026 0.000813559 17.604C0.00122034 17.651 0.00772881 17.6981 0.0223729 17.7443C0.024 17.75 0.027661 17.754 0.0296949 17.7593C0.0349831 17.7742 0.0431186 17.7866 0.0500339 17.8006C0.0658983 17.8336 0.0837966 17.864 0.106169 17.8908C0.117153 17.904 0.128542 17.9159 0.141153 17.9274C0.165966 17.9511 0.192814 17.97 0.222508 17.9868C0.236339 17.9942 0.248542 18.003 0.263186 18.0088C0.308746 18.0272 0.356339 18.04 0.40678 18.04H11.7966C12.0216 18.04 12.2034 17.8429 12.2034 17.6C12.2034 17.3571 12.0216 17.16 11.7966 17.16H1.5779C3.42793 15.5742 7.59864 11.9768 9.74156 9.94312L10.3196 10.4953ZM22.1109 0.88L12.7318 9.83884C12.2164 10.3369 11.3768 10.3365 10.8598 9.83752L10.0552 9.06928C10.0527 9.0662 10.0523 9.06224 10.0495 9.05916C10.0397 9.04728 10.0263 9.04244 10.0157 9.03188L1.48231 0.88H22.1109ZM0.813559 16.6923V1.41548L9.12691 9.35572C6.86685 11.4915 2.47566 15.2698 0.813559 16.6923Z" fill="white" fill-opacity="0.4"/>
</svg>
