<svg width="21" height="21" viewBox="0 0 21 21" fill="none" xmlns="http://www.w3.org/2000/svg">
<path d="M10.4654 11.7854C13.5689 11.7854 16.0861 9.14224 16.0861 5.88364C16.0861 2.62504 13.5688 -1.49289e-09 10.4654 -1.49289e-09C7.36198 -1.49289e-09 4.84473 2.64312 4.84473 5.88364C4.84473 9.12416 7.36195 11.7854 10.4654 11.7854ZM10.4654 1.5388C12.7413 1.5388 14.6034 3.49396 14.6034 5.88364C14.6034 8.27332 12.7413 10.2284 10.4654 10.2284C8.18956 10.2284 6.32747 8.27328 6.32747 5.8836C6.32747 3.49392 8.18953 1.5388 10.4654 1.5388Z" fill="white"/>
<path d="M0.741372 21.0001H20.2586C20.6724 21.0001 21 20.6562 21 20.2217C21 16.1484 17.8448 12.8174 13.9483 12.8174H7.05173C3.17242 12.8174 0 16.1303 0 20.2217C0 20.6562 0.327581 21.0001 0.741372 21.0001ZM7.05173 14.3743H13.9483C16.7758 14.3743 19.1034 16.5829 19.4655 19.4432H1.53448C1.89653 16.601 4.22415 14.3743 7.05173 14.3743Z" fill="white"/>
</svg>
