<svg width="22" height="22" viewBox="0 0 22 22" fill="none" xmlns="http://www.w3.org/2000/svg">
<path d="M20.2365 14.5615C19.8296 14.9224 19.2509 14.7645 19.2509 14.0608V12.3692C19.2509 11.8595 18.8304 11.4399 18.3195 11.4399H17.1305C17.2661 11.7151 17.3384 12.0128 17.3384 12.3106C17.3384 13.3526 16.5246 14.142 15.4034 14.1871H15.3672H15.331C14.2098 14.142 13.396 13.3526 13.396 12.3106C13.396 12.0083 13.4683 11.7106 13.604 11.4399H12.3652H12.3606H12.3426C11.8407 11.4399 11.4293 11.8459 11.4293 12.3512V14.0608C11.4293 14.7645 10.8415 14.9179 10.4346 14.5615C9.76097 13.9706 8.73466 14.2864 8.68945 15.3645C8.73466 16.4426 9.76097 16.7584 10.4301 16.1674C10.837 15.8066 11.4293 15.9644 11.4293 16.6682V18.3417C11.4293 18.8424 11.8362 19.2529 12.3426 19.2529H14.0425C14.7478 19.2529 14.9015 19.8439 14.5444 20.2499C13.9521 20.922 14.2686 21.955 15.3491 22.0001C16.4297 21.955 16.7462 20.922 16.1539 20.2499C15.7922 19.8439 15.9504 19.2484 16.6558 19.2484H18.3467C18.8485 19.2484 19.2599 18.8424 19.2599 18.3372V16.6636C19.2599 15.9599 19.8341 15.8066 20.241 16.1629C20.9056 16.7539 21.932 16.4381 21.9772 15.3645C21.932 14.2864 20.9102 13.9706 20.2365 14.5615Z" fill="white" fill-opacity="0.4"/>
<path d="M20.246 5.83259C19.8391 6.19347 19.2423 6.03558 19.2423 5.33187V3.65379C19.2423 3.15307 18.8354 2.74258 18.329 2.74258H16.6517C15.9464 2.74258 15.7926 2.16968 16.1498 1.7637C16.7421 1.09156 16.4256 0.0675706 15.345 0.0224609C14.2645 0.0675706 13.948 1.08705 14.5403 1.75918C14.902 2.16517 14.7437 2.74258 14.0384 2.74258H12.343C11.8321 2.74258 11.4116 3.1621 11.4116 3.67184V4.85822C11.6874 4.72289 11.9858 4.65072 12.2842 4.65072C13.3331 4.65072 14.1243 5.46269 14.1695 6.58141V6.6175V6.65359C14.1243 7.77231 13.3331 8.58428 12.2887 8.58428C11.9858 8.58428 11.6874 8.51211 11.4161 8.37678V9.61278V9.61729V9.63534C11.4161 10.1361 11.823 10.5466 12.3294 10.5466H14.0429C14.7482 10.5466 14.902 11.133 14.5448 11.539C13.9525 12.2111 14.269 13.2351 15.3496 13.2802C16.4301 13.2351 16.7466 12.2111 16.1543 11.5435C15.7926 11.1375 15.9509 10.5466 16.6562 10.5466H18.3335C18.8354 10.5466 19.2468 10.1406 19.2468 9.63534V7.93921C19.2468 7.2355 19.8391 7.08213 20.246 7.4385C20.9196 8.02943 21.955 7.71366 22.0002 6.63554C21.955 5.55742 20.9196 5.24165 20.246 5.83259Z" fill="white" fill-opacity="0.4"/>
<path d="M9.67078 11.4265H7.95725C7.25195 11.4265 7.09823 10.8401 7.4554 10.4341C8.04768 9.76197 7.7312 8.73798 6.65064 8.69287C5.57008 8.73798 5.2536 9.76197 5.84587 10.4296C6.20756 10.8356 6.04932 11.4265 5.34402 11.4265H3.66667C3.16482 11.4265 2.75339 11.8325 2.75339 12.3377V14.0339C2.75339 14.7376 2.16112 14.8909 1.75421 14.5346C1.08056 13.9436 0.0452117 14.2594 5.38966e-10 15.3375C0.0406905 16.4066 1.08056 16.7224 1.74969 16.1315C2.1566 15.7706 2.75339 15.9285 2.75339 16.6322V18.3193C2.75339 18.82 3.1603 19.2305 3.66667 19.2305H5.34402C6.04932 19.2305 6.20304 19.8034 5.84587 20.2094C5.2536 20.8815 5.57008 21.9055 6.65064 21.9506C7.7312 21.9055 8.04768 20.886 7.4554 20.2139C7.09371 19.8079 7.25195 19.2305 7.95725 19.2305H9.65269C10.1636 19.2305 10.5841 18.811 10.5841 18.3012V17.1149C10.3083 17.2502 10.0099 17.3224 9.71147 17.3224C8.66708 17.3224 7.87587 16.5104 7.83066 15.3917V15.3556V15.3195C7.87587 14.2008 8.66708 13.3888 9.71147 13.3888C10.0144 13.3888 10.3128 13.461 10.5841 13.5963V12.3603V12.3558V12.3377C10.5841 11.837 10.1771 11.4265 9.67078 11.4265Z" fill="white" fill-opacity="0.4"/>
<path d="M11.5695 5.82817C11.1626 6.18905 10.5703 6.03117 10.5703 5.32746V3.6584C10.5703 3.15768 10.1634 2.74718 9.65707 2.74718H7.95711C7.25181 2.74718 7.09809 2.15624 7.45526 1.75026C8.04753 1.07812 7.73105 0.0451097 6.65049 0C5.56993 0.0451097 5.25345 1.07812 5.84572 1.75026C6.20742 2.15624 6.04918 2.75169 5.34387 2.75169H3.662C3.16015 2.75169 2.74872 3.15768 2.74872 3.66291V5.33648C2.74872 6.04019 2.17454 6.19356 1.76763 5.83719C1.09398 5.24626 0.0676726 5.56203 0.0224609 6.64015C0.0676726 7.70925 1.08946 8.02501 1.76311 7.43408C2.17002 7.0732 2.74872 7.23108 2.74872 7.9348V9.62641C2.74872 10.1361 3.16919 10.5557 3.68008 10.5557H4.86915C4.73352 10.2805 4.66118 9.98278 4.66118 9.68505C4.66118 8.64302 5.47499 7.8536 6.59624 7.80849H6.63241H6.66858C7.78983 7.8536 8.60364 8.64302 8.60364 9.68505C8.60364 9.98729 8.5313 10.285 8.39566 10.5557H9.63446H9.63898H9.65707C10.1589 10.5557 10.5703 10.1497 10.5703 9.64445V7.9348C10.5703 7.23108 11.1581 7.07771 11.565 7.43408C12.2387 8.02501 13.265 7.70925 13.3102 6.63113C13.265 5.553 12.2387 5.23724 11.5695 5.82817Z" fill="white" fill-opacity="0.4"/>
</svg>
