<svg width="22" height="22" viewBox="0 0 22 22" fill="none" xmlns="http://www.w3.org/2000/svg">
<path d="M22 1.48113C22 0.664288 21.3422 4.67897e-09 20.5333 4.67897e-09H1.46667C0.6578 4.67897e-09 0 0.664288 0 1.48113C0 2.16949 0.469333 2.74417 1.1 2.90968V20.8892L2.2 19.7783L4.4 22L6.6 19.7783L8.8 22L11 19.7783L13.2 22L15.4 19.7783L17.6 22L19.8 19.7783L20.9 20.8892V2.90968C21.5307 2.74417 22 2.16949 22 1.48113ZM20.1667 19.1014L19.8 18.7311L17.6 20.9528L15.4 18.7311L13.2 20.9528L11 18.7311L8.8 20.9528L6.6 18.7311L4.4 20.9528L2.2 18.7311L1.83333 19.1014V2.96226V1.85142H20.1667V2.96226V19.1014ZM20.9 2.12209V1.11085H1.1V2.12209C0.8811 1.99434 0.733333 1.75477 0.733333 1.48113C0.733333 1.07271 1.06223 0.740566 1.46667 0.740566H20.5333C20.9378 0.740566 21.2667 1.07271 21.2667 1.48113C21.2667 1.75477 21.1189 1.99434 20.9 2.12209Z" fill="white" fill-opacity="0.4"/>
<path d="M16.1333 14.8115H10.6333C10.4309 14.8115 10.2666 14.977 10.2666 15.1818C10.2666 15.3866 10.4309 15.5521 10.6333 15.5521H16.1333C16.3357 15.5521 16.4999 15.3866 16.4999 15.1818C16.4999 14.977 16.3357 14.8115 16.1333 14.8115Z" fill="white" fill-opacity="0.4"/>
<path d="M17.7064 14.9187C17.6404 14.9887 17.6001 15.0812 17.6001 15.1816C17.6001 15.2778 17.6404 15.3741 17.7064 15.4445C17.7761 15.5111 17.8714 15.5519 17.9668 15.5519C18.0621 15.5519 18.1574 15.5111 18.2271 15.4445C18.2931 15.3741 18.3334 15.2778 18.3334 15.1816C18.3334 15.0812 18.2931 14.9887 18.2271 14.9187C18.0878 14.7817 17.8458 14.7817 17.7064 14.9187Z" fill="white" fill-opacity="0.4"/>
<path d="M17.9668 9.62744H12.4668C12.2644 9.62744 12.1001 9.79296 12.1001 9.99772C12.1001 10.2025 12.2644 10.368 12.4668 10.368H17.9668C18.1692 10.368 18.3334 10.2025 18.3334 9.99772C18.3334 9.79296 18.1692 9.62744 17.9668 9.62744Z" fill="white" fill-opacity="0.4"/>
<path d="M17.9669 12.2192H14.3003C14.0979 12.2192 13.9336 12.3848 13.9336 12.5895C13.9336 12.7943 14.0979 12.9598 14.3003 12.9598H17.9669C18.1693 12.9598 18.3336 12.7943 18.3336 12.5895C18.3336 12.3848 18.1693 12.2192 17.9669 12.2192Z" fill="white" fill-opacity="0.4"/>
<path d="M10.2666 12.5895C10.2666 12.7943 10.4309 12.9598 10.6333 12.9598H11.3666C11.569 12.9598 11.7333 12.7943 11.7333 12.5895C11.7333 12.3848 11.569 12.2192 11.3666 12.2192H10.6333C10.4309 12.2192 10.2666 12.3848 10.2666 12.5895Z" fill="white" fill-opacity="0.4"/>
<path d="M16.4999 7.40544C16.4999 7.20067 16.3357 7.03516 16.1333 7.03516H10.6333C10.4309 7.03516 10.2666 7.20067 10.2666 7.40544C10.2666 7.61021 10.4309 7.77572 10.6333 7.77572H16.1333C16.3357 7.77572 16.4999 7.61021 16.4999 7.40544Z" fill="white" fill-opacity="0.4"/>
<path d="M17.7064 7.14279C17.6404 7.21278 17.6001 7.30535 17.6001 7.40569C17.6001 7.50197 17.6404 7.59824 17.7064 7.66859C17.7761 7.73525 17.8714 7.77598 17.9668 7.77598C18.0658 7.77598 18.1574 7.73525 18.2271 7.66859C18.2931 7.59824 18.3334 7.50197 18.3334 7.40569C18.3334 7.30942 18.2931 7.21278 18.2271 7.14279C18.0914 7.00579 17.8421 7.00579 17.7064 7.14279Z" fill="white" fill-opacity="0.4"/>
<path d="M11.2603 10.2604C11.3263 10.19 11.3666 10.0975 11.3666 9.99749C11.3666 9.89714 11.3263 9.80457 11.2603 9.73459C11.1246 9.59758 10.879 9.59758 10.7396 9.73459C10.6736 9.80457 10.6333 9.89714 10.6333 9.99749C10.6333 10.0975 10.6736 10.19 10.7396 10.2604C10.8093 10.327 10.9046 10.3678 11 10.3678C11.0953 10.3678 11.1906 10.327 11.2603 10.2604Z" fill="white" fill-opacity="0.4"/>
<path d="M13.0938 12.8527C13.1598 12.7823 13.2001 12.6898 13.2001 12.5898C13.2001 12.4894 13.1598 12.3935 13.0938 12.3269C12.9581 12.1899 12.7125 12.1899 12.5731 12.3269C12.5071 12.3969 12.4668 12.4935 12.4668 12.5898C12.4668 12.686 12.5071 12.7823 12.5731 12.8527C12.6428 12.9193 12.7381 12.9601 12.8335 12.9601C12.9288 12.9601 13.0241 12.9193 13.0938 12.8527Z" fill="white" fill-opacity="0.4"/>
<path d="M6.2332 7.81312V7.40544C6.2332 7.20067 6.06894 7.03516 5.86654 7.03516C5.66414 7.03516 5.49987 7.20067 5.49987 7.40544V7.81423C5.09984 7.89643 4.73537 8.11083 4.4666 8.43186C4.24257 8.69921 4.1388 9.04135 4.17547 9.39571C4.21287 9.75822 4.39767 10.0944 4.68257 10.3181L5.49987 10.9602V12.9738C5.07417 12.8205 4.76654 12.4131 4.76654 11.931C4.76654 11.7263 4.60227 11.5608 4.39987 11.5608C4.19747 11.5608 4.0332 11.7263 4.0332 11.931C4.0332 12.8249 4.66424 13.5729 5.49987 13.7451V14.0702C5.49987 14.2749 5.66414 14.4404 5.86654 14.4404C6.06894 14.4404 6.2332 14.2749 6.2332 14.0702V13.7436C6.63324 13.6614 6.9977 13.447 7.26684 13.1259C7.49087 12.8579 7.59427 12.5157 7.5576 12.1614C7.51984 11.7992 7.3354 11.4634 7.0505 11.2401L6.2332 10.5984V8.58479C6.6589 8.73809 6.96654 9.1454 6.96654 9.62751C6.96654 9.83227 7.1308 9.99779 7.3332 9.99779C7.5356 9.99779 7.69987 9.83227 7.69987 9.62751C7.69987 8.73327 7.06884 7.9853 6.2332 7.81312ZM6.60024 11.8248C6.7282 11.9251 6.81144 12.0766 6.8283 12.2387C6.84407 12.3906 6.8008 12.5361 6.70694 12.6479C6.57934 12.8001 6.41434 12.9067 6.2332 12.9719V11.5359L6.60024 11.8248ZM5.13284 9.73378C5.0045 9.63306 4.92164 9.48162 4.90477 9.31906C4.88937 9.16762 4.93227 9.02247 5.02614 8.91027C5.15374 8.75808 5.31874 8.65144 5.49987 8.58627V10.0219L5.13284 9.73378Z" fill="white" fill-opacity="0.4"/>
<path d="M14.6665 4.4432C14.869 4.4432 15.0331 4.27742 15.0331 4.07292C15.0331 3.86842 14.869 3.70264 14.6665 3.70264C14.464 3.70264 14.2998 3.86842 14.2998 4.07292C14.2998 4.27742 14.464 4.4432 14.6665 4.4432Z" fill="white" fill-opacity="0.4"/>
<path d="M13.2002 4.4432C13.4027 4.4432 13.5668 4.27742 13.5668 4.07292C13.5668 3.86842 13.4027 3.70264 13.2002 3.70264C12.9977 3.70264 12.8335 3.86842 12.8335 4.07292C12.8335 4.27742 12.9977 4.4432 13.2002 4.4432Z" fill="white" fill-opacity="0.4"/>
<path d="M16.1333 4.4432C16.3358 4.4432 16.4999 4.27742 16.4999 4.07292C16.4999 3.86842 16.3358 3.70264 16.1333 3.70264C15.9308 3.70264 15.7666 3.86842 15.7666 4.07292C15.7666 4.27742 15.9308 4.4432 16.1333 4.4432Z" fill="white" fill-opacity="0.4"/>
<path d="M11.7334 4.4432C11.9359 4.4432 12.1 4.27742 12.1 4.07292C12.1 3.86842 11.9359 3.70264 11.7334 3.70264C11.5309 3.70264 11.3667 3.86842 11.3667 4.07292C11.3667 4.27742 11.5309 4.4432 11.7334 4.4432Z" fill="white" fill-opacity="0.4"/>
<path d="M17.6001 4.4432C17.8026 4.4432 17.9667 4.27742 17.9667 4.07292C17.9667 3.86842 17.8026 3.70264 17.6001 3.70264C17.3976 3.70264 17.2334 3.86842 17.2334 4.07292C17.2334 4.27742 17.3976 4.4432 17.6001 4.4432Z" fill="white" fill-opacity="0.4"/>
<path d="M7.33346 4.4432C7.53597 4.4432 7.70013 4.27742 7.70013 4.07292C7.70013 3.86842 7.53597 3.70264 7.33346 3.70264C7.13096 3.70264 6.9668 3.86842 6.9668 4.07292C6.9668 4.27742 7.13096 4.4432 7.33346 4.4432Z" fill="white" fill-opacity="0.4"/>
<path d="M8.80026 4.4432C9.00276 4.4432 9.16693 4.27742 9.16693 4.07292C9.16693 3.86842 9.00276 3.70264 8.80026 3.70264C8.59776 3.70264 8.43359 3.86842 8.43359 4.07292C8.43359 4.27742 8.59776 4.4432 8.80026 4.4432Z" fill="white" fill-opacity="0.4"/>
<path d="M10.2666 4.4432C10.4691 4.4432 10.6332 4.27742 10.6332 4.07292C10.6332 3.86842 10.4691 3.70264 10.2666 3.70264C10.0641 3.70264 9.8999 3.86842 9.8999 4.07292C9.8999 4.27742 10.0641 4.4432 10.2666 4.4432Z" fill="white" fill-opacity="0.4"/>
<path d="M19.0669 4.4432C19.2694 4.4432 19.4335 4.27742 19.4335 4.07292C19.4335 3.86842 19.2694 3.70264 19.0669 3.70264C18.8644 3.70264 18.7002 3.86842 18.7002 4.07292C18.7002 4.27742 18.8644 4.4432 19.0669 4.4432Z" fill="white" fill-opacity="0.4"/>
<path d="M5.86667 4.4432C6.06917 4.4432 6.23333 4.27742 6.23333 4.07292C6.23333 3.86842 6.06917 3.70264 5.86667 3.70264C5.66416 3.70264 5.5 3.86842 5.5 4.07292C5.5 4.27742 5.66416 4.4432 5.86667 4.4432Z" fill="white" fill-opacity="0.4"/>
<path d="M4.39987 4.4432C4.60237 4.4432 4.76654 4.27742 4.76654 4.07292C4.76654 3.86842 4.60237 3.70264 4.39987 3.70264C4.19737 3.70264 4.0332 3.86842 4.0332 4.07292C4.0332 4.27742 4.19737 4.4432 4.39987 4.4432Z" fill="white" fill-opacity="0.4"/>
<path d="M2.93307 4.4432C3.13558 4.4432 3.29974 4.27742 3.29974 4.07292C3.29974 3.86842 3.13558 3.70264 2.93307 3.70264C2.73057 3.70264 2.56641 3.86842 2.56641 4.07292C2.56641 4.27742 2.73057 4.4432 2.93307 4.4432Z" fill="white" fill-opacity="0.4"/>
</svg>
