<svg width="23" height="25" viewBox="0 0 23 25" fill="none" xmlns="http://www.w3.org/2000/svg">
<path d="M6.55503 16.4606H20.1922C21.7385 16.4606 23 15.1864 23 13.6244V7.82874C23 7.8236 23 7.81332 23 7.80818C23 7.79277 23 7.7825 23 7.76708C23 7.75681 23 7.74653 22.9949 7.73625C22.9949 7.72598 22.9898 7.71056 22.9898 7.70029C22.9898 7.69001 22.9847 7.67973 22.9847 7.66946C22.9797 7.65918 22.9797 7.64891 22.9746 7.63349C22.9695 7.62322 22.9695 7.61294 22.9644 7.60266C22.9593 7.59239 22.9593 7.58211 22.9542 7.57184C22.9491 7.56156 22.944 7.55128 22.939 7.53587C22.9339 7.52559 22.9288 7.51532 22.9237 7.51018C22.9186 7.4999 22.9135 7.48963 22.9084 7.47935C22.9034 7.46908 22.8983 7.46394 22.8932 7.45366C22.8881 7.44339 22.8779 7.43311 22.8728 7.42283C22.8677 7.41256 22.8627 7.40742 22.8525 7.39714C22.8474 7.38687 22.8372 7.38173 22.8321 7.37145C22.8271 7.36118 22.8169 7.35604 22.8118 7.34576C22.8067 7.33549 22.7965 7.33035 22.7914 7.32521C22.7813 7.31494 22.7762 7.3098 22.766 7.29952C22.7558 7.29438 22.7508 7.28411 22.7406 7.27897C22.7304 7.27383 22.7202 7.26355 22.7101 7.25842C22.6999 7.25328 22.6948 7.24814 22.6846 7.243C22.6745 7.23786 22.6643 7.23273 22.6541 7.22245C22.6439 7.21731 22.6338 7.21217 22.6236 7.20704C22.6134 7.2019 22.6032 7.19676 22.5931 7.19162C22.5829 7.18648 22.5727 7.18135 22.5626 7.17621C22.5524 7.17107 22.5422 7.17107 22.532 7.16593C22.5219 7.16079 22.5066 7.15566 22.4964 7.15566C22.4863 7.15566 22.4761 7.15052 22.471 7.15052C22.4557 7.14538 22.4456 7.14538 22.4303 7.14538C22.4252 7.14538 22.4201 7.14024 22.41 7.14024L5.1257 4.73051V2.29509C5.1257 2.2694 5.1257 2.24371 5.12061 2.22316C5.12061 2.21802 5.12061 2.21288 5.11553 2.2026C5.11553 2.18719 5.11044 2.17178 5.11044 2.15636C5.10535 2.14095 5.10535 2.13067 5.10027 2.11526C5.10027 2.10498 5.09518 2.09984 5.09518 2.08957C5.09009 2.07415 5.08501 2.05874 5.07992 2.04333C5.07992 2.03819 5.07483 2.02791 5.07483 2.02277C5.06975 2.00736 5.06466 1.99708 5.05449 1.98167C5.0494 1.97653 5.0494 1.96626 5.04431 1.96112C5.03923 1.95084 5.03414 1.94057 5.02397 1.93029C5.01888 1.92001 5.01379 1.91488 5.00871 1.9046C5.00362 1.89432 4.99854 1.88919 4.99345 1.87891C4.98836 1.86863 4.97819 1.85836 4.9731 1.84808C4.96802 1.84294 4.96293 1.83781 4.95784 1.83267C4.94767 1.82239 4.9375 1.81212 4.92732 1.80184C4.92224 1.7967 4.91715 1.79156 4.91206 1.78643C4.90189 1.77615 4.89172 1.76587 4.87646 1.7556C4.87137 1.75046 4.8612 1.74532 4.85611 1.74018C4.84594 1.72991 4.83576 1.72477 4.82559 1.71449C4.81033 1.70422 4.79507 1.69394 4.7849 1.6888C4.77981 1.68366 4.77472 1.68366 4.76964 1.67853C4.74929 1.66825 4.72386 1.65797 4.70351 1.6477L0.954691 0.0549126C0.603715 -0.09409 0.201874 0.0703267 0.054363 0.42485C-0.0931484 0.779373 0.0696228 1.18528 0.420598 1.33428L3.74723 2.75237V5.89684V6.39523V10.2179V13.6347V17.9506C3.74723 19.3893 4.81542 20.5813 6.19388 20.7611C5.94464 21.1825 5.79713 21.6757 5.79713 22.1998C5.79713 23.7463 7.04335 25 8.56933 25C10.0953 25 11.3415 23.7412 11.3415 22.1998C11.3415 21.686 11.2042 21.1979 10.96 20.7868H17.1352C16.891 21.203 16.7537 21.686 16.7537 22.1998C16.7537 23.7463 17.9999 25 19.5259 25C21.0518 25 22.298 23.7412 22.298 22.1998C22.298 20.6584 21.0518 19.3996 19.5259 19.3996H6.55503C5.76152 19.3996 5.12061 18.747 5.12061 17.9506V16.0701C5.53771 16.3167 6.03111 16.4606 6.55503 16.4606ZM9.97323 22.1946C9.97323 22.9756 9.34249 23.6076 8.57441 23.6076C7.80634 23.6076 7.1756 22.9705 7.1756 22.1946C7.1756 21.4188 7.80634 20.7817 8.57441 20.7817C9.34249 20.7817 9.97323 21.4137 9.97323 22.1946ZM20.9298 22.1946C20.9298 22.9756 20.299 23.6076 19.5309 23.6076C18.7629 23.6076 18.1321 22.9705 18.1321 22.1946C18.1321 21.4188 18.7629 20.7817 19.5309 20.7817C20.299 20.7817 20.9298 21.4137 20.9298 22.1946ZM20.1922 15.0733H6.55503C5.76152 15.0733 5.12061 14.4208 5.12061 13.6244V10.2076V6.38495V6.12805L21.6266 8.42475V13.6193C21.6266 14.426 20.9806 15.0733 20.1922 15.0733Z" fill="white" fill-opacity="0.4"/>
</svg>
